<!-- Uploaded to: SVG Repo, www.svgrepo.com, Generator: SVG Repo Mixer Tools --><svg version="1.1" id="Capa_1" xmlns="http://www.w3.org/2000/svg" xmlns:xlink="http://www.w3.org/1999/xlink" viewBox="0 0 496.794 496.794" xml:space="preserve" height="32" width="32"><g>	<g>		<rect x="298.341" y="5.113" style="fill:#010002;" width="130.176" height="38.872" />		<rect x="319.169" y="96.751" style="fill:#010002;" width="130.127" height="38.958" />		<rect x="316.986" y="50.601" style="fill:#010002;" width="130.159" height="38.872" />		<rect x="292.732" y="143.141" style="fill:#010002;" width="130.212" height="38.89" />		<path style="fill:#010002;" d="M271.091,133.005h-118.15l5.268-35.906h-58.023L34.442,320.336h160.894l-0.086,176.458h58.279    l-0.231-234.412H134.226l11.131-76.739h125.786v-0.017c0,0,0.152,0,0.238,0v-52.621    C271.263,133.005,271.193,133.005,271.091,133.005z" />		<path style="fill:#010002;" d="M138.146,84.059c23.201,0,42.017-18.818,42.017-42.034C180.163,18.818,161.344,0,138.146,0    c-23.217,0-42.034,18.818-42.034,42.025C96.112,65.242,114.93,84.061,138.146,84.059z" />		<polygon style="fill:#010002;" points="192.334,196.937 192.334,237.02 303.231,237.02 303.231,496.794 350.874,496.794     350.874,237.02 462.352,237.02 462.352,196.937   " />		<polygon style="fill:#010002;" points="41.992,356.405 100.356,356.405 100.356,496.794 125.463,496.794 125.463,356.405     184.101,356.405 184.101,335.268 41.992,335.268   " />	</g></g></svg>