<!-- Uploaded to: SVG Repo, www.svgrepo.com, Generator: SVG Repo Mixer Tools --><svg fill="#000000" height="100" width="100" version="1.2" baseProfile="tiny" id="Layer_1" xmlns="http://www.w3.org/2000/svg" xmlns:xlink="http://www.w3.org/1999/xlink" viewBox="-63 65 128 128" xml:space="preserve"><path d="M-16.6,136.2h71.8v-5.8H31.1l-0.1,0.2l-0.6-0.2h-47V136.2z M-16.9,66.1c7.1,0,12.8,5.7,12.8,12.8c0,7.1-5.7,12.8-12.8,12.8  S-29.7,86-29.7,78.9C-29.7,71.8-24,66.1-16.9,66.1z M42.7,93.4l-16-12.1l-1.9,6.1l-9.4-3.1l-10.6,32l-17.4,0.2l-14.7-24.9  c-1.1-2-3.3-3.1-5.8-3.1c-0.3,0-1.2,0.1-1.6,0.2c-0.3,0.1-0.8,0.2-1.2,0.3c-10.9,3.6-19.4,20.6-19.4,38.3c-0.1,5.3,0,9.8,0.3,14.1  c-0.4,5.1,2.6,10.2,7.6,12c1.4,0.4,2.6,0.7,3.9,0.7h32.3v30.1c0,4.1,3.3,7.3,7.3,7.3c4.1,0,7.3-3.3,7.3-7.3V147  c0-1.9-0.7-3.8-2.2-5.1c-1.5-1.5-3.4-2.3-5.1-2.3h-21.6v-16.1l-11.2-19c-0.4-0.7-0.1-1.8,0.5-2.2c0.7-0.4,1.8-0.1,2.2,0.5l12.8,22.1  c1,1.7,2.7,2.9,4.8,2.9H5.8c2.4,0,4.4-1.6,5.3-3.6l19.2,6.3l0.7,0.2l0.1-0.2l12.2-36.9L42.7,93.4z M29.7,128l-18.2-6  c0-2.6-1.9-4.9-4.3-5.4l9.7-29.6l23.7,7.8L29.7,128z" /></svg>