<?xml version="1.0" ?><!-- Uploaded to: SVG Repo, www.svgrepo.com, Generator: SVG Repo Mixer Tools -->
<svg width="800px" height="800px" viewBox="0 0 2050 2050" data-name="Layer 2" id="Layer_2" xmlns="http://www.w3.org/2000/svg"><defs><style>.cls-1{fill:#f08000;}.cls-2{fill:#f4c23f;}.cls-3{fill:#f4a93f;}.cls-4{fill:#4d4c78;}.cls-5{fill:#323150;}.cls-6{fill:#de3226;}.cls-7{fill:#b11a31;}.cls-8{fill:#f8881b;}.cls-9{fill:#fad564;}.cls-10{fill:#f44533;}.cls-11{fill:#64639c;}</style></defs><title/><path class="cls-1" d="M747.5,1116.2H591A394,394,0,0,1,196.7,721.9V442.7a20,20,0,0,1,20-20H648.3a20,20,0,0,1,0,40H236.7V721.9A354.1,354.1,0,0,0,591,1076.2H747.5a20,20,0,0,1,0,40Z"/><path class="cls-1" d="M1459,1116.2H1299.7a20,20,0,0,1,0-40H1459a354.1,354.1,0,0,0,354.3-354.3V462.7H1491.1a20,20,0,0,1,0-40h342.2a20,20,0,0,1,20,20V721.9A394,394,0,0,1,1459,1116.2Z"/><rect class="cls-2" height="372.03" width="164.2" x="942.9" y="1156.8"/><path class="cls-2" d="M772.2,628.8c15.8-21.7-4.2-62.5,4.3-88.6s48.6-46.3,48.6-74.1-40.5-49.1-48.6-74.2,11.5-66.9-4.3-88.6-61-15.4-83-31.4-29.3-60.7-55.4-69.2-57.7,23.4-85.6,23.4-60.4-31.6-85.5-23.4-33.8,53.4-55.5,69.2-67,9.5-83,31.4,4.2,62.5-4.2,88.6-48.6,46.3-48.6,74.2,40.4,49,48.6,74.1-11.5,66.9,4.2,88.6c7,9.6,19.7,13.8,33.5,16.8l-36.9,82.1a15,15,0,0,0,16.9,20.9L390,737.4a15,15,0,0,1,16.2,7.3l26.4,46.6a15,15,0,0,0,26.8-1.3l28-62.2c19.8-6.6,41.5-21.8,60.8-21.8s41,15.2,60.8,21.8L637,790a15.1,15.1,0,0,0,26.9,1.3l26.3-46.6a15,15,0,0,1,16.3-7.3l52.3,11.2a15.1,15.1,0,0,0,16.9-20.9l-37-82.1C752.6,642.6,765.2,638.4,772.2,628.8Z"/><path class="cls-3" d="M942.9,1226.3a521.7,521.7,0,0,0,164.2,0v-69.5H942.9Z"/><path class="cls-2" d="M558.9,332.2h840a92.3,92.3,0,0,1,92.3,92.3V721.7A466.1,466.1,0,0,1,1025,1187.8h0A466.1,466.1,0,0,1,558.9,721.7V332.2A0,0,0,0,1,558.9,332.2Z"/><path class="cls-3" d="M1163.5,1115.3h0c-257.4,0-466.1-208.7-466.1-466.1v-317H558.9V721.7c0,257.4,208.7,466.1,466.1,466.1h0a463.7,463.7,0,0,0,282.1-95.1A463.7,463.7,0,0,1,1163.5,1115.3Z"/><path class="cls-3" d="M823.4,332.2H558.9V721.7c0,11.4.4,22.7,1.2,33.8l8.1,3.8,7.1,3.3L596,808.5a60,60,0,0,0,107,4.9L718.5,786l30.8,6.6a60.8,60.8,0,0,0,12.7,1.3h0a60,60,0,0,0,54.7-84.7l-18.9-42a82.8,82.8,0,0,0,10.8-11.9c19.3-26.5,15.3-57.6,12.4-80.3-.8-6.6-2-16.4-1.7-20.6,2.2-3.5,8.5-10.1,12.8-14.7,16-16.8,38-40,38-73.6s-22-56.9-38-73.7c-4.3-4.6-10.6-11.2-12.8-14.6-.3-4.3.9-14,1.7-20.7S823.1,341.1,823.4,332.2Z"/><path class="cls-4" d="M1299.7,1613.1H750.3l48.7-70.3a32.4,32.4,0,0,1,26.7-14h398.6a32.4,32.4,0,0,1,26.7,14Z"/><path class="cls-5" d="M800.4,1595.2l46-66.4H825.7a32.4,32.4,0,0,0-26.7,14l-48.7,70.3h549.4l-12.4-17.9Z"/><rect class="cls-4" height="235.51" rx="55.4" ry="55.4" width="865" x="592.5" y="1613.1"/><path class="cls-5" d="M1425.3,1813.5H671.2a55.5,55.5,0,0,1-55.5-55.4V1633.4a54.7,54.7,0,0,1,1.1-10.7,55.3,55.3,0,0,0-24.3,45.9v124.6a55.5,55.5,0,0,0,55.4,55.5h754.2a55.4,55.4,0,0,0,54.3-44.8A54.5,54.5,0,0,1,1425.3,1813.5Z"/><rect class="cls-5" height="83.69" rx="29.3" ry="29.3" width="700" x="669.5" y="1689.5"/><path class="cls-3" d="M1028.2,941.5a20.1,20.1,0,0,1-20-20v-381l-68.7,52.4A20.1,20.1,0,0,1,915.2,561l100.9-76.8a20,20,0,0,1,32.1,15.9V921.5A20,20,0,0,1,1028.2,941.5Z"/><path class="cls-3" d="M1143.5,960.9H910.6a20,20,0,0,1,0-40h232.9a20,20,0,0,1,0,40Z"/><path class="cls-1" d="M1038.2,941.5a20.1,20.1,0,0,1-20-20v-381l-68.7,52.4A20.1,20.1,0,0,1,925.2,561l100.9-76.8a20,20,0,0,1,32.1,15.9V921.5A20,20,0,0,1,1038.2,941.5Z"/><path class="cls-1" d="M1153.5,960.9H920.6a20,20,0,0,1,0-40h232.9a20,20,0,0,1,0,40Z"/><path class="cls-2" d="M825.1,466.1c0,27.8-40.5,49-48.6,74.1s11.5,66.9-4.3,88.6-61,15.4-83,31.4-29.3,60.7-55.4,69.2S576.1,706,548.2,706s-60.4,31.6-85.5,23.4-33.8-53.4-55.5-69.2-67-9.5-83-31.4,4.2-62.5-4.2-88.6-48.6-46.3-48.6-74.1S311.8,417,320,391.9s-11.5-66.9,4.2-88.6,61.1-15.4,83-31.4,29.4-60.7,55.5-69.2,57.6,23.4,85.5,23.4,60.4-31.6,85.6-23.4,33.7,53.4,55.4,69.2,67,9.5,83,31.4-4.2,62.5,4.3,88.6S825.1,438.2,825.1,466.1Z"/><path class="cls-3" d="M541.8,664.4a181.7,181.7,0,0,1-128.1-53,182.8,182.8,0,0,1-38.8-57.6,180.8,180.8,0,0,1,38.8-198.5A181.1,181.1,0,0,1,708.6,553.8,181.1,181.1,0,0,1,541.8,664.4Z"/><path class="cls-3" d="M656.6,522.7a15.1,15.1,0,0,0-20-7.5l-111.1,50a13.4,13.4,0,0,0-4.2,2.8,13.4,13.4,0,0,0-4.2-2.8l-111.2-50a14.9,14.9,0,0,0-19.9,7.5L334.4,637.6c20.1,11.6,54.5,9.3,72.8,22.6,21,15.3,28.9,57.9,53,68.3l61.1-135.9,54.2,120.5c20.3,8.8,41,21.9,58.3,16.3,26.1-8.5,33.7-53.4,55.4-69.2,6.7-4.8,15.4-7.6,24.8-9.7Z"/><path class="cls-6" d="M432.6,791.3l-26.4-46.6a15,15,0,0,0-16.2-7.3l-52.3,11.2a15,15,0,0,1-16.9-20.9l92.1-205a15.1,15.1,0,0,1,20-7.5l111.1,50a15.1,15.1,0,0,1,7.6,19.9L459.4,790A15,15,0,0,1,432.6,791.3Z"/><path class="cls-7" d="M445.1,560.3A31.1,31.1,0,0,0,429.9,519l-8.8-4.1a15.2,15.2,0,0,0-8.2,7.8l-92.1,205a15,15,0,0,0,16.9,20.9l22.6-4.9Z"/><path class="cls-6" d="M663.9,791.3l26.3-46.6a15,15,0,0,1,16.3-7.3l52.3,11.2a15.1,15.1,0,0,0,16.9-20.9l-92.2-205a14.9,14.9,0,0,0-19.9-7.5l-111.2,50a15.1,15.1,0,0,0-7.6,19.9L637,790A15.1,15.1,0,0,0,663.9,791.3Z"/><path class="cls-7" d="M581.3,576l-33.8,15.1L637,790a15.1,15.1,0,0,0,26.9,1.3l7.4-13.2Z"/><path class="cls-7" d="M544,565.2l-111.1-50a15.1,15.1,0,0,0-20,7.5l-25.1,56a184.4,184.4,0,0,0,25.9,32.7,182.4,182.4,0,0,0,103,51.3l34.9-77.6A15.1,15.1,0,0,0,544,565.2Z"/><path class="cls-7" d="M702.9,566l-19.4-43.3a14.9,14.9,0,0,0-19.9-7.5l-111.2,50a15.1,15.1,0,0,0-7.6,19.9l34,75.5a183.1,183.1,0,0,0,33.5-10.5A181,181,0,0,0,702.9,566Z"/><circle class="cls-8" cx="548.2" cy="461.6" r="169.5"/><circle class="cls-1" cx="548.2" cy="461.6" r="149.7"/><circle class="cls-2" cx="548.2" cy="461.6" r="132.9"/><path class="cls-9" d="M666.6,265.7h0a31.4,31.4,0,0,0,9.5-8.6c-13.1-19.8-22.3-47.9-42.3-54.4-6.9-2.2-14.4-1.5-22.1.8a30.6,30.6,0,0,0,.6,29.2L625,254.6A30.5,30.5,0,0,0,666.6,265.7Z"/><path class="cls-9" d="M548.9,236.1a30.9,30.9,0,0,0,4.3-10.3,41.9,41.9,0,0,1-5,.3c-24.5,0-52.5-24.3-76.1-24.7A30.4,30.4,0,0,0,485.6,231l21.2,13.9a30.4,30.4,0,0,0,42.1-8.8Z"/><path class="cls-9" d="M776.5,391.9c-8.5-26.1,11.5-66.9-4.3-88.6-10-13.7-31.3-16.3-51.3-20.2a50,50,0,0,0-6.7,29.9l4,40.8A49.3,49.3,0,0,0,772,398.2h0a45.4,45.4,0,0,0,6.6-1.1A37.7,37.7,0,0,1,776.5,391.9Z"/><rect class="cls-10" height="85.82" rx="22.5" ry="22.5" transform="translate(343.1 -130.3) rotate(24.8)" width="45" x="445.1" y="671.8"/><rect class="cls-10" height="85.82" rx="22.5" ry="22.5" transform="translate(-205.3 349.8) rotate(-24)" width="45" x="697.2" y="614.6"/><rect class="cls-11" height="42.17" rx="21.1" ry="21.1" width="293.5" x="907.3" y="1528.8"/><rect class="cls-11" height="51.82" rx="25.9" ry="25.9" width="484.5" x="900.6" y="1613.1"/><rect class="cls-9" height="81.91" rx="41" ry="41" width="313" x="1027" y="332.2"/><rect class="cls-9" height="276.67" rx="49.7" ry="49.7" width="99.3" x="1390.2" y="483.3"/><rect class="cls-9" height="136.26" rx="26.5" ry="26.5" width="53" x="1054.1" y="1319.2"/></svg>