<svg xmlns="http://www.w3.org/2000/svg" xmlns:xlink="http://www.w3.org/1999/xlink" version="1.1" width="1000" height="1000" viewBox="0 0 1000 1000" xml:space="preserve">
<desc>Created with Fabric.js 3.5.0</desc>
<defs>
</defs>
<rect x="0" y="0" width="100%" height="100%" fill="#ffffff" fill-opacity="0"/>
<g transform="matrix(0.9246 0 0 0.9246 499.99 499.99)" id="569666">
<g style="" vector-effect="non-scaling-stroke">
		<g transform="matrix(1 0 0 1 -14.9 -10.9)">
<path style="stroke: none; stroke-width: 0.8384; stroke-dasharray: none; stroke-linecap: butt; stroke-dashoffset: 0; stroke-linejoin: round; stroke-miterlimit: 2; is-custom-font: none; font-file-url: none; fill: rgb(185,255,255); fill-rule: nonzero; opacity: 1;" transform=" translate(-285.1, -289.1)" d="M 285.1 7.5 C 129.6 7.5 3.5 133.6 3.5 289.1 s 126.1 281.6 281.6 281.6 s 281.6 -126.1 281.6 -281.6 S 440.6 7.5 285.1 7.5 z M 285.1 556.4 c -147.6 0 -267.3 -119.7 -267.3 -267.3 S 137.5 21.8 285.1 21.8 s 267.3 119.7 267.3 267.3 S 432.7 556.4 285.1 556.4 z" stroke-linecap="round"/>
</g>
		<g transform="matrix(1 0 0 1 -191.4498 -8.4238)">
<path style="stroke: none; stroke-width: 0.8384; stroke-dasharray: none; stroke-linecap: butt; stroke-dashoffset: 0; stroke-linejoin: round; stroke-miterlimit: 2; is-custom-font: none; font-file-url: none; fill: rgb(185,255,255); fill-rule: nonzero; opacity: 1;" transform=" translate(-108.5502, -291.5762)" d="M 165.5 452.5 c -47.5 -37.5 -77 -96.2 -77 -161 c 0 -67.3 32.9 -127 83.6 -164.3 c 5.6 -4.1 8.8 -10.9 8 -17.8 c -0.5 -4.4 -1.2 -8.6 -2 -12.5 c -2.9 -13 -17.7 -19.4 -29.2 -12.6 C 81 124.8 35 202.9 35 292.5 c 0 88.3 44.7 165.4 111 206.3 c 13.9 8.6 36.2 -3.3 36.1 -25.8 C 182 467.3 169.6 455.7 165.5 452.5 z" stroke-linecap="round"/>
</g>
		<g transform="matrix(1 0 0 1 119.242 -25.4341)">
<path style="stroke: none; stroke-width: 0.8384; stroke-dasharray: none; stroke-linecap: butt; stroke-dashoffset: 0; stroke-linejoin: round; stroke-miterlimit: 2; is-custom-font: none; font-file-url: none; fill: rgb(185,255,255); fill-rule: nonzero; opacity: 1;" transform=" translate(-419.242, -274.5659)" d="M 304 76 c 1.2 12.2 11.1 21.5 23.3 22.4 c 71.3 5.3 165.7 116.6 154 198.1 c -9.6 67.1 -27.4 109.4 -83.7 162.4 c -5.8 5.5 -8.7 13.4 -7.8 21.3 c 0 0.2 0 0.4 0.1 0.6 c 2.3 18.6 23.2 28.2 38.8 17.9 c 63.6 -41.6 106.1 -117.1 106.1 -203.2 c 0 -95.2 -50.8 -216.4 -200.9 -248.7 c -16.5 -3.6 -31.7 10.1 -30.1 26.9 C 303.8 74.5 303.9 75.3 304 76 z" stroke-linecap="round"/>
</g>
		<g transform="matrix(1 0 0 1 30.9 -15.15)">
<path style="stroke: none; stroke-width: 0.8384; stroke-dasharray: none; stroke-linecap: butt; stroke-dashoffset: 0; stroke-linejoin: round; stroke-miterlimit: 2; is-custom-font: none; font-file-url: none; fill: rgb(185,255,255); fill-rule: nonzero; opacity: 1;" transform=" translate(-330.9, -284.85)" d="M 346.1 514 h -30.4 c -6.6 0 -12 -5.4 -12 -12 V 67.7 c 0 -6.6 5.4 -12 12 -12 h 30.4 c 6.6 0 12 5.4 12 12 V 502 C 358.1 508.6 352.7 514 346.1 514 z" stroke-linecap="round"/>
</g>
		<g transform="matrix(1 0 0 1 -48 -19.85)">
<path style="stroke: none; stroke-width: 0.8384; stroke-dasharray: none; stroke-linecap: butt; stroke-dashoffset: 0; stroke-linejoin: round; stroke-miterlimit: 2; is-custom-font: none; font-file-url: none; fill: rgb(185,255,255); fill-rule: nonzero; opacity: 1;" transform=" translate(-252, -280.15)" d="M 267.2 514 h -30.4 c -6.6 0 -12 -5.4 -12 -12 V 58.3 c 0 -6.6 5.4 -12 12 -12 h 30.4 c 6.6 0 12 5.4 12 12 V 502 C 279.2 508.6 273.8 514 267.2 514 z" stroke-linecap="round"/>
</g>
		<g transform="matrix(1 0 0 1 -135.05 -19.9)">
<path style="stroke: none; stroke-width: 0.8384; stroke-dasharray: none; stroke-linecap: butt; stroke-dashoffset: 0; stroke-linejoin: round; stroke-miterlimit: 2; is-custom-font: none; font-file-url: none; fill: rgb(185,255,255); fill-rule: nonzero; opacity: 1;" transform=" translate(-164.95, -280.1)" d="M 268 264.9 v 30.4 c 0 6.6 -5.4 12 -12 12 H 73.9 c -6.6 0 -12 -5.4 -12 -12 v -30.4 c 0 -6.6 5.4 -12 12 -12 H 256 C 262.6 252.9 268 258.3 268 264.9 z" stroke-linecap="round"/>
</g>
		<g transform="matrix(1 0 0 1 106.7 -19.9)">
<path style="stroke: none; stroke-width: 0.8384; stroke-dasharray: none; stroke-linecap: butt; stroke-dashoffset: 0; stroke-linejoin: round; stroke-miterlimit: 2; is-custom-font: none; font-file-url: none; fill: rgb(185,255,255); fill-rule: nonzero; opacity: 1;" transform=" translate(-406.7, -280.1)" d="M 496.8 264.9 v 30.4 c 0 6.6 -5.4 12 -12 12 H 328.6 c -6.6 0 -12 -5.4 -12 -12 v -30.4 c 0 -6.6 5.4 -12 12 -12 h 156.3 C 491.4 252.9 496.8 258.3 496.8 264.9 z" stroke-linecap="round"/>
</g>
</g>
</g>
<g transform="matrix(4.3139 0 0 4.3139 485.4035 489.4035)" id="824042">
<path style="stroke: rgb(0,153,255); stroke-width: 5; stroke-dasharray: none; stroke-linecap: butt; stroke-dashoffset: 0; stroke-linejoin: miter; stroke-miterlimit: 4; is-custom-font: none; font-file-url: none; fill: none; fill-rule: nonzero; opacity: 1;" vector-effect="non-scaling-stroke" transform=" translate(-67.5, -67.5)" d="M 132.5 67.5 C 132.5 103.399 103.399 132.5 67.5 132.5 C 31.6015 132.5 2.5 103.399 2.5 67.5 C 2.5 31.6015 31.6015 2.5 67.5 2.5 C 103.399 2.5 132.5 31.6015 132.5 67.5 Z" stroke-linecap="round"/>
</g>
<g transform="matrix(4.7951 0 0 4.7951 484.5012 486.5012)" id="690303">
<path style="stroke: rgb(0,153,255); stroke-width: 5; stroke-dasharray: none; stroke-linecap: butt; stroke-dashoffset: 0; stroke-linejoin: miter; stroke-miterlimit: 4; is-custom-font: none; font-file-url: none; fill: none; fill-rule: nonzero; opacity: 1;" vector-effect="non-scaling-stroke" transform=" translate(-67.5, -67.5)" d="M 132.5 67.5 C 132.5 103.399 103.399 132.5 67.5 132.5 C 31.6015 132.5 2.5 103.399 2.5 67.5 C 2.5 31.6015 31.6015 2.5 67.5 2.5 C 103.399 2.5 132.5 31.6015 132.5 67.5 Z" stroke-linecap="round"/>
</g>
</svg>